<?xml version="1.0" standalone="no"?>
<!DOCTYPE svg PUBLIC "-//W3C//DTD SVG 20010904//EN"
 "http://www.w3.org/TR/2001/REC-SVG-20010904/DTD/svg10.dtd">
<svg version="1.0" xmlns="http://www.w3.org/2000/svg"
 width="187.000000pt" height="187.000000pt" viewBox="0 0 187.000000 187.000000"
 preserveAspectRatio="xMidYMid meet">
<metadata>
Created by potrace 1.11, written by Peter Selinger 2001-2013
</metadata>
<g transform="translate(0.000000,187.000000) scale(0.100000,-0.100000)"
fill="#000000" stroke="none">
<path d="M120 1685 l0 -105 78 -1 c94 -1 94 -1 212 -39 136 -43 248 -56 358
-42 87 12 227 53 312 93 163 77 189 84 310 84 133 0 180 -15 313 -97 l77 -48
0 130 0 130 -830 0 -830 0 0 -105z"/>
<path d="M501 1399 c-90 -27 -154 -115 -157 -216 -3 -68 6 -98 46 -156 36 -53
92 -81 169 -83 102 -4 170 34 217 119 23 43 28 64 28 122 1 90 -32 151 -100
191 -51 30 -145 41 -203 23z m140 -25 c100 -50 140 -223 78 -334 -55 -97 -202
-101 -271 -9 -82 110 -60 292 43 341 38 19 115 20 150 2z"/>
<path d="M1027 1396 c-35 -13 -54 -26 -95 -63 -24 -22 -54 -104 -54 -147 0
-102 44 -176 130 -218 39 -19 63 -23 137 -23 129 1 135 6 135 108 0 85 5 100
30 109 8 3 -19 6 -60 5 -41 0 -66 -2 -55 -5 30 -7 35 -20 35 -104 l0 -77 -35
-10 c-37 -10 -68 -7 -123 10 -82 27 -146 127 -141 222 6 127 74 189 201 183
70 -3 109 -23 130 -66 l18 -35 0 52 c0 28 -5 55 -10 58 -23 15 -205 15 -243 1z"/>
<path d="M1552 1383 c-65 -183 -146 -400 -154 -410 -5 -6 -19 -14 -31 -16 -12
-2 6 -5 41 -6 57 -1 62 1 48 14 -13 14 -12 22 10 83 13 37 24 68 24 69 0 2 31
3 68 3 l69 0 28 -72 c16 -40 28 -78 28 -85 0 -9 17 -13 61 -12 34 1 52 4 41 6
-45 11 -54 29 -170 338 -21 55 -41 104 -45 108 -4 5 -12 -4 -18 -20z m33 -143
c14 -40 25 -79 25 -85 0 -7 -21 -12 -56 -13 -38 0 -54 3 -52 11 26 88 52 166
55 163 2 -1 14 -36 28 -76z"/>
<path d="M135 1393 c11 -3 23 -10 28 -17 11 -16 7 -419 -5 -463 -5 -21 -23
-55 -40 -77 -37 -47 -11 -36 43 19 51 51 59 93 59 317 0 106 4 198 8 204 4 6
14 14 22 17 8 3 -19 5 -60 5 -41 0 -66 -3 -55 -5z"/>
<path d="M90 763 c-38 -14 -59 -67 -44 -108 13 -33 113 -61 129 -36 3 6 -9 8
-29 4 -66 -11 -112 71 -66 117 24 24 72 26 94 4 14 -13 16 -13 16 -1 0 24 -57
35 -100 20z"/>
<path d="M230 690 c0 -58 3 -80 13 -80 9 0 11 12 9 40 l-4 40 46 0 46 0 0 -40
c0 -25 5 -40 13 -40 8 0 12 23 12 80 0 66 -3 80 -15 80 -12 0 -15 -8 -12 -35
l4 -35 -47 0 -47 0 4 35 c3 24 0 35 -9 35 -10 0 -13 -21 -13 -80z"/>
<path d="M418 690 c-2 -66 0 -80 12 -80 12 0 15 16 15 80 0 55 -4 80 -12 80
-7 0 -13 -27 -15 -80z"/>
<path d="M498 690 c2 -55 7 -80 16 -80 8 0 11 12 8 35 -3 26 0 35 11 35 8 0
27 -16 41 -35 15 -19 33 -35 41 -35 9 0 3 12 -16 32 -33 37 -34 41 -17 68 19
30 -1 54 -48 58 l-39 3 3 -81z m67 35 c0 -23 -5 -31 -22 -33 -20 -3 -23 1 -23
33 0 32 3 36 23 33 17 -2 22 -10 22 -33z"/>
<path d="M665 745 c-70 -69 25 -177 103 -117 15 12 25 33 29 58 5 36 2 43 -22
62 -37 29 -80 28 -110 -3z m101 -9 c30 -46 5 -116 -42 -116 -39 0 -67 39 -61
84 6 43 19 56 59 56 18 0 33 -8 44 -24z"/>
<path d="M835 690 c0 -64 3 -80 15 -80 12 0 14 14 12 76 -3 67 -2 75 14 72 27
-5 41 -34 27 -58 -11 -16 -10 -18 1 -14 8 3 17 17 21 32 8 32 -15 52 -59 52
l-31 0 0 -80z"/>
<path d="M955 690 c0 -66 3 -80 15 -80 12 0 15 8 12 35 -3 27 -1 35 12 35 8 0
20 -9 26 -19 14 -28 39 -51 55 -51 7 0 1 13 -16 31 -32 34 -34 41 -19 70 18
32 -4 59 -48 59 l-37 0 0 -80z m71 46 c7 -31 -1 -46 -27 -46 -15 0 -19 7 -19
35 0 28 4 35 20 35 12 0 22 -9 26 -24z"/>
<path d="M1275 745 c-31 -30 -32 -73 -5 -105 26 -30 114 -41 123 -16 5 14 3
15 -13 6 -31 -16 -59 -12 -85 15 -30 29 -33 75 -7 98 24 22 76 22 98 0 17 -17
18 -17 11 0 -4 10 -7 21 -7 23 0 2 -20 4 -45 4 -35 0 -52 -6 -70 -25z"/>
<path d="M1438 763 l32 -4 0 -75 c0 -52 4 -74 13 -74 9 0 11 20 9 76 l-4 77
31 -5 c17 -2 31 -1 31 4 0 4 -33 7 -72 6 -40 0 -58 -3 -40 -5z"/>
<path d="M1585 690 c0 -57 4 -80 13 -80 8 0 12 23 12 80 0 57 -4 80 -12 80 -9
0 -13 -23 -13 -80z"/>
<path d="M1665 745 c-24 -24 -31 -57 -19 -90 16 -40 125 -62 139 -27 5 14 4
15 -6 5 -21 -21 -68 -15 -94 12 -29 28 -32 61 -9 93 18 26 74 30 98 6 14 -13
16 -13 16 -1 0 36 -90 37 -125 2z"/>
<path d="M1150 698 c-13 -35 -28 -69 -33 -75 -7 -9 -5 -13 6 -13 8 0 17 13 21
30 4 24 11 30 31 30 20 0 29 -7 36 -30 6 -16 18 -30 26 -30 11 0 13 4 5 13 -5
6 -20 40 -32 75 -13 34 -26 62 -29 62 -3 0 -17 -28 -31 -62z m39 5 c11 -21 9
-23 -13 -23 -24 0 -25 2 -14 25 6 14 12 24 13 23 1 -2 8 -13 14 -25z"/>
<path d="M113 500 c-68 -41 -93 -111 -70 -191 18 -61 73 -99 153 -106 78 -7
114 7 113 44 -1 16 -3 21 -6 11 -6 -24 -57 -41 -103 -35 -82 11 -130 73 -126
164 1 45 7 58 33 84 27 27 38 32 84 32 61 1 96 -14 109 -46 7 -19 9 -17 9 14
1 43 -6 46 -102 47 -45 0 -74 -5 -94 -18z"/>
<path d="M401 510 c15 -8 17 -30 16 -146 0 -105 -4 -139 -15 -150 -12 -13 -4
-14 69 -12 70 3 84 6 87 20 3 16 1 16 -26 2 -22 -11 -37 -12 -56 -4 -24 9 -26
14 -26 74 l0 64 36 -4 c20 -3 40 -7 44 -9 4 -3 10 3 13 14 4 16 -1 17 -45 13
l-49 -5 3 69 3 69 30 -1 c51 -2 53 -3 58 -21 3 -11 5 -7 6 10 l1 27 -82 0
c-58 -1 -78 -3 -67 -10z"/>
<path d="M650 375 c0 -104 -4 -155 -12 -163 -9 -9 -3 -12 28 -12 27 0 35 3 25
9 -11 7 -15 38 -18 127 l-2 118 124 -130 124 -129 0 151 c1 103 5 154 13 162
9 9 3 12 -27 12 -31 -1 -36 -3 -24 -10 14 -8 17 -30 18 -127 l2 -118 -125 130
-125 130 -1 -150z"/>
<path d="M1000 511 c0 -5 -3 -18 -6 -28 -6 -17 -6 -17 7 -1 12 14 54 23 96 19
14 -1 17 -255 2 -282 -9 -17 -6 -19 33 -19 34 1 39 3 26 11 -16 9 -18 27 -18
149 0 126 2 140 18 141 41 3 68 -4 80 -19 10 -14 12 -12 12 11 l0 27 -125 0
c-69 0 -125 -4 -125 -9z"/>
<path d="M1323 505 c21 -21 20 -270 -1 -292 -12 -12 -3 -13 69 -11 82 3 84 4
86 28 1 14 0 18 -3 8 -3 -10 -14 -19 -25 -19 -10 -1 -25 -2 -31 -3 -36 -6 -48
14 -48 78 l0 64 33 -2 c19 -2 38 -6 44 -9 6 -4 13 1 16 12 4 16 -1 17 -45 13
l-49 -5 3 69 c3 67 3 68 32 70 17 0 37 -7 47 -17 19 -19 19 -18 19 6 0 25 -1
25 -81 25 -71 0 -79 -2 -66 -15z"/>
<path d="M1573 509 c15 -9 17 -27 17 -147 0 -94 -4 -142 -12 -150 -9 -9 -1
-12 38 -11 37 0 44 2 28 9 -18 7 -21 17 -22 64 l0 56 32 0 c25 0 36 -8 56 -37
44 -65 79 -93 113 -92 27 0 29 2 11 9 -21 8 -71 62 -100 105 -15 23 -15 27 5
58 28 46 27 92 -2 121 -20 20 -34 23 -103 25 -59 1 -75 -2 -61 -10z m140 -32
c13 -16 17 -34 14 -65 -5 -49 -13 -60 -48 -67 -51 -10 -57 -1 -54 83 1 42 3
78 4 80 4 11 69 -13 84 -31z"/>
</g>
</svg>
